<svg xmlns="http://www.w3.org/2000/svg" width="172" height="186" viewBox="0 0 172 186">
  <g id="Grupo_33" data-name="Grupo 33" transform="translate(-130 -394)">
    <text id="Tell_My_Fortune" data-name="Tell My Fortune" transform="translate(130 573)" fill="#fff" font-size="21" font-family="Poppins-Bold, Poppins" font-weight="700"><tspan x="0" y="0" letter-spacing="0.05em">Tell My </tspan><tspan y="0">Fortune</tspan></text>
    <path id="Icon_metro-magic-wand" data-name="Icon metro-magic-wand" d="M27.855,20.891,15.213,8.249H8.892V14.57L21.534,27.212ZM34.176,1.928H40.5V14.57H34.176ZM59.46,33.533H72.1v6.321H59.46ZM65.781,14.57V8.249H59.46L46.818,20.891l6.321,6.321ZM2.571,33.533H15.213v6.321H2.571ZM34.176,58.817H40.5V71.459H34.176Zm-25.284,0v6.321h6.321L27.855,52.5l-6.321-6.321ZM102.324,89.04,39.5,26.213a4.755,4.755,0,0,0-6.7,0L26.855,32.15a4.755,4.755,0,0,0,0,6.7l62.827,62.827a4.755,4.755,0,0,0,6.7,0l5.938-5.938A4.755,4.755,0,0,0,102.324,89.04ZM49.978,55.657,31.015,36.694l6.321-6.321L56.3,49.336Z" transform="translate(214.06 390.819) rotate(45)" fill="#fff"/>
  </g>
</svg>
